<svg xmlns="http://www.w3.org/2000/svg" width="36.926" height="28.387" viewBox="0 0 36.926 28.387">
  <g id="Group_1267" data-name="Group 1267" transform="translate(-293 -5.211)">
    <g id="laptop" transform="translate(293 -53.99)">
      <g id="Group_1261" data-name="Group 1261" transform="translate(0 59.201)">
        <g id="Group_1260" data-name="Group 1260" transform="translate(0 0)">
          <path id="Path_736" data-name="Path 736" d="M36.924,84.938c0-.005,0-.011,0-.016a.53.53,0,0,0-.009-.063l0-.006A.524.524,0,0,0,36.9,84.8l-.005-.014q-.009-.025-.02-.048l0-.008-2.893-5.706V60.248A1.048,1.048,0,0,0,32.928,59.2H4a1.048,1.048,0,0,0-1.047,1.047V79.021L.058,84.727l0,.008c-.008.016-.014.031-.02.048L.029,84.8a.55.55,0,0,0-.016.056l0,.006A.533.533,0,0,0,0,84.922c0,.005,0,.011,0,.016s0,.022,0,.034v1.372a1.245,1.245,0,0,0,1.244,1.244H35.683a1.245,1.245,0,0,0,1.244-1.244V84.972C36.926,84.961,36.925,84.95,36.924,84.938ZM4.033,60.283h28.86V78.61H4.033ZM3.825,79.691H33.1l2.4,4.74H23.62l-.6-2.163a1.021,1.021,0,0,0-.982-.748H14.884a1.021,1.021,0,0,0-.982.748l-.6,2.163H1.422ZM22.5,84.431h-8.07l.5-1.829h7.061Zm13.346,1.913a.162.162,0,0,1-.162.162H1.244a.162.162,0,0,1-.162-.162v-.831H35.844Z" transform="translate(0 -59.201)" fill="#3854f6"/>
        </g>
      </g>
      <g id="Group_1263" data-name="Group 1263" transform="translate(5.187 70.348)">
        <g id="Group_1262" data-name="Group 1262" transform="translate(0 0)">
          <path id="Path_737" data-name="Path 737" d="M97.934,213.756a.541.541,0,0,0-.541.541v5.485H73V214.3a.541.541,0,0,0-1.082,0v5.719a.849.849,0,0,0,.848.848H97.627a.849.849,0,0,0,.848-.848V214.3A.541.541,0,0,0,97.934,213.756Z" transform="translate(-71.923 -213.756)" fill="#3854f6"/>
        </g>
      </g>
      <g id="Group_1265" data-name="Group 1265" transform="translate(5.187 61.437)">
        <g id="Group_1264" data-name="Group 1264" transform="translate(0 0)">
          <path id="Path_738" data-name="Path 738" d="M97.627,90.2H72.771a.849.849,0,0,0-.848.848V96.77a.541.541,0,0,0,1.082,0V91.285H97.393V96.77a.541.541,0,0,0,1.082,0V91.051A.849.849,0,0,0,97.627,90.2Z" transform="translate(-71.923 -90.203)" fill="#3854f6"/>
        </g>
      </g>
    </g>
    <path id="add" d="M5.387,0A5.5,5.5,0,0,0,0,5.591a5.5,5.5,0,0,0,5.387,5.591,5.5,5.5,0,0,0,5.387-5.591A5.5,5.5,0,0,0,5.387,0ZM7.743,6.057H5.836v1.98a.449.449,0,1,1-.9,0V6.057H3.03a.466.466,0,0,1,0-.932H4.938V3.145a.449.449,0,1,1,.9,0v1.98H7.743a.466.466,0,0,1,0,.932Zm0,0" transform="translate(306 9.818)" fill="#3955f6"/>
  </g>
</svg>
